PathFileType	4	(X/Y/Z)	C:/Users/opensim2020/Desktop/walking_exp_matlab/subject06_walking12_straigt_02.trc																																																																																																																																														
DataRate	CameraRate	NumFrames	NumMarkers	Units	OrigDataRate	OrigDataStartFrame	OrigNumFrames																																																																																																																																										
100	100	6	48	mm	100	1601	215																																																																																																																																										
Frame#	Time	LFHD			RFHD			LBHD			RBHD			C7			T10			CLAV			STRN			RBAK			LSHO			LUPA			LELB			LFRM			LWRA			LWRB			LFIN			RSHO			RUPA			RELB			RFRM			RWRA			RWRB			RFIN			LASI			RASI			LPSI			RPSI			LTHI			LKNE			LTIB			LANK			LHEE			LTOE			RTHI			RKNE			RTIB			RANK			RHEE			RTOE			*39			*40			*41			*42			*43			*44			*45			*46			*47		
		X1	Y1	Z1	X2	Y2	Z2	X3	Y3	Z3	X4	Y4	Z4	X5	Y5	Z5	X6	Y6	Z6	X7	Y7	Z7	X8	Y8	Z8	X9	Y9	Z9	X10	Y10	Z10	X11	Y11	Z11	X12	Y12	Z12	X13	Y13	Z13	X14	Y14	Z14	X15	Y15	Z15	X16	Y16	Z16	X17	Y17	Z17	X18	Y18	Z18	X19	Y19	Z19	X20	Y20	Z20	X21	Y21	Z21	X22	Y22	Z22	X23	Y23	Z23	X24	Y24	Z24	X25	Y25	Z25	X26	Y26	Z26	X27	Y27	Z27	X28	Y28	Z28	X29	Y29	Z29	X30	Y30	Z30	X31	Y31	Z31	X32	Y32	Z32	X33	Y33	Z33	X34	Y34	Z34	X35	Y35	Z35	X36	Y36	Z36	X37	Y37	Z37	X38	Y38	Z38	X39	Y39	Z39	X40	Y40	Z40	X41	Y41	Z41	X42	Y42	Z42	X43	Y43	Z43	X44	Y44	Z44	X45	Y45	Z45	X46	Y46	Z46	X47	Y47	Z47	X48	Y48	Z48
																																																																																																																																																	
162	1.61	-1511.22449	1675.51563	-477.75684	-1379.55542	1661.06555	-471.41434	-1518.59644	1623.66089	-343.08612	-1389.76196	1615.05896	-338.65063	-1462.4906	1458.44543	-338.69019	-1450.27051	1127.54407	-321.30005	-1460.07642	1387.84924	-452.10989	-1466.37195	1214.27698	-504.258	-1383.81738	1283.17395	-275.30066	-1622.40759	1414.19995	-391.97037	-1692.88354	1211.4281	-413.41269	-1704.27405	1099.46643	-427.03094	-1722.18311	960.91986	-487.04025	-1674.09802	866.09326	-571.76147	-1714.62012	845.37823	-517.17395	-1715.00928	780.85431	-579.13776	-1299.2981	1416.3512	-402.51501	-1216.48376	1214.63708	-366.65915	-1208.56519	1093.05481	-375.2821	-1191.38721	973.1933	-386.79697	-1217.23071	832.2641	-446.11795	-1182.16016	835.62341	-388.78537	-1176.87732	758.14148	-422.18317	-1562.27197	972.84686	-499.55698	-1343.05066	975.4743	-498.86087	-1531.24072	999.09003	-339.79572	-1363.66809	995.04877	-347.38489	-1612.97498	656.59052	-431.70486	-1584.68396	493.28397	-430.04425	-1565.03125	240.87521	-375.0965	-1510.33801	73.16053	-359.08029	-1463.8877	62.62891	-318.85513	-1512.41785	40.68151	-503.2341	-1277.05603	646.9101	-515.06335	-1296.22876	528.28192	-558.35529	-1298.02002	312.67261	-417.20294	-1338.31262	160.37151	-310.29114	-1386.98132	152.56987	-266.95972	-1321.98767	61.06405	-425.13315	-1455.07861	1714.29932	-375.70734	NaN	NaN	NaN	NaN	NaN	NaN	NaN	NaN	NaN	NaN	NaN	NaN	NaN	NaN	NaN	NaN	NaN	NaN	NaN	NaN	NaN	NaN	NaN	NaN
163	1.62	-1511.26257	1675.55237	-488.35071	-1379.62549	1660.89221	-482.06189	-1518.85889	1623.71387	-353.78668	-1390.09961	1614.84375	-349.21829	-1462.95081	1458.52002	-349.26007	-1450.92676	1127.79688	-330.97766	-1460.62439	1387.73938	-462.44281	-1467.42273	1213.97412	-514.08319	-1384.49255	1283.4458	-285.40863	-1622.85413	1414.5376	-402.69955	-1693.75671	1212.33032	-427.16156	-1705.46338	1100.59253	-442.99835	-1722.94556	963.96509	-507.49905	-1674.57629	872.81201	-595.88934	-1714.6991	849.6535	-541.8653	-1715.02112	787.79724	-606.32764	-1299.80811	1415.9823	-413.26321	-1217.32739	1214.31726	-375.40106	-1209.61121	1092.80042	-382.45724	-1192.51709	972.71948	-391.80371	-1218.53674	830.35675	-447.78928	-1183.20325	835.09558	-390.68796	-1178.22217	756.76672	-422.19211	-1563.47998	972.22693	-507.92578	-1344.02258	975.68268	-509.03363	-1531.12256	999.07599	-348.9053	-1363.55286	995.30212	-357.5361	-1613.31616	656.22681	-437.98993	-1584.6731	493.00708	-434.92294	-1564.88745	241.18013	-377.35873	-1510.05591	73.61524	-359.6409	-1463.44482	63.39949	-319.41107	-1512.40186	40.21336	-503.13248	-1278.10486	648.41644	-528.99268	-1298.35791	530.25897	-573.10803	-1299.3136	308.77008	-439.35007	-1338.9928	151.33754	-339.86661	-1387.62549	140.74254	-297.27893	-1322.4115	58.53482	-459.94916	-1455.11609	1714.22729	-386.27856	NaN	NaN	NaN	NaN	NaN	NaN	NaN	NaN	NaN	NaN	NaN	NaN	NaN	NaN	NaN	NaN	NaN	NaN	NaN	NaN	NaN	NaN	NaN	NaN
164	1.63	-1511.18396	1675.52307	-499.05823	-1379.59314	1660.62805	-492.64404	-1519.0625	1623.73242	-364.43188	-1390.26172	1614.66284	-359.80066	-1463.33167	1458.57886	-359.68698	-1451.48218	1127.97559	-340.79193	-1461.13123	1387.5094	-472.81152	-1468.31006	1213.63733	-523.87061	-1385.25964	1283.61597	-295.55377	-1623.23767	1414.77966	-413.32129	-1694.5791	1213.24292	-440.6579	-1706.59961	1101.80481	-458.81741	-1723.93787	967.62567	-527.97656	-1674.88416	879.8858	-619.44739	-1714.5448	854.26294	-566.18225	-1714.8457	795.15735	-633.09991	-1300.21606	1415.55042	-423.87613	-1218.27124	1214.08862	-384.41696	-1210.54639	1092.53162	-389.95053	-1193.57886	972.22638	-396.86136	-1219.44238	828.61243	-449.99289	-1184.24719	834.6095	-392.78802	-1179.50378	755.4516	-422.3017	-1564.41455	970.38733	-513.93579	-1344.83521	975.83154	-519.15515	-1531.15894	998.96338	-357.93134	-1363.58264	995.49048	-367.6373	-1613.25037	655.93982	-444.39392	-1584.35571	492.66464	-439.43381	-1564.69531	241.43092	-379.4639	-1509.80518	74.0397	-360.1871	-1463.16675	63.61879	-320.55673	-1512.44507	40.15521	-503.32047	-1279.1969	649.81091	-542.37433	-1300.40918	532.20691	-587.17957	-1300.58191	305.02057	-461.32703	-1339.82715	142.37636	-369.94189	-1388.49097	129.57088	-327.56448	-1322.96558	56.351	-494.71262	-1455.09521	1714.15576	-396.9241	NaN	NaN	NaN	NaN	NaN	NaN	NaN	NaN	NaN	NaN	NaN	NaN	NaN	NaN	NaN	NaN	NaN	NaN	NaN	NaN	NaN	NaN	NaN	NaN
165	1.64	-1511.04529	1675.37341	-509.74133	-1379.52551	1660.26392	-503.21164	-1519.22925	1623.75537	-375.12659	-1390.43323	1614.4342	-370.33093	-1463.724	1458.54553	-370.15506	-1451.90955	1127.97571	-350.61642	-1461.52637	1387.21973	-483.07065	-1469.09375	1213.27527	-533.71118	-1386.06616	1283.76184	-305.54269	-1623.5708	1415.03345	-424.01343	-1695.25354	1214.13696	-453.9599	-1707.54944	1103.06738	-474.39697	-1724.04443	970.97058	-547.70483	-1674.98096	887.23004	-642.44952	-1714.33752	859.24573	-590.17426	-1714.40393	802.93762	-659.36755	-1300.50012	1415.07751	-434.39407	-1219.05591	1213.69983	-393.21078	-1211.52368	1092.17468	-397.41257	-1194.66821	971.75311	-402.08713	-1220.40796	827.13739	-452.38983	-1185.27405	834.20239	-395.16281	-1180.73547	754.38794	-423.03461	-1565.18115	970.72992	-525.25073	-1345.51282	975.92181	-529.35272	-1531.1377	998.65161	-367.17993	-1363.56274	995.59637	-377.54031	-1613.03149	655.63464	-450.77182	-1584.24329	492.35345	-444.06259	-1564.52185	241.68137	-381.59805	-1509.54651	74.43088	-360.65704	-1462.83667	64.53623	-320.32602	-1512.46594	40.09371	-503.49493	-1280.06006	651.10925	-555.54352	-1302.24475	533.82001	-600.76251	-1301.85596	301.1069	-483.24142	-1340.74719	133.69789	-400.56873	-1389.245	118.51144	-359.38974	-1323.44543	54.41673	-529.51117	-1455.03442	1714.00354	-407.65073	NaN	NaN	NaN	NaN	NaN	NaN	NaN	NaN	NaN	NaN	NaN	NaN	NaN	NaN	NaN	NaN	NaN	NaN	NaN	NaN	NaN	NaN	NaN	NaN
166	1.65	-1510.87134	1675.17786	-520.48853	-1379.3385	1659.81519	-513.68378	-1519.28711	1623.69971	-385.87076	-1390.58203	1614.09924	-380.91165	-1463.91199	1458.46533	-380.62646	-1452.45581	1127.92834	-360.39969	-1461.79968	1386.84375	-493.33847	-1469.79285	1212.85266	-543.69299	-1386.62073	1283.81677	-315.60849	-1623.80737	1415.19336	-434.55786	-1695.86633	1215.01819	-467.00522	-1708.44153	1104.26794	-489.61298	-1724.47034	974.6955	-567.12646	-1675.08826	894.90186	-664.95319	-1714.22095	864.64398	-613.82251	-1713.89514	811.01215	-685.13599	-1300.74646	1414.55811	-444.80911	-1219.87097	1213.32166	-401.85333	-1212.46667	1091.78711	-404.9007	-1195.71313	971.30518	-407.44519	-1221.91138	825.54181	-454.45178	-1186.23596	833.90625	-397.86533	-1181.85535	753.38953	-423.92041	-1565.82532	970.06012	-534.47736	-1346.04199	975.85828	-539.26917	-1531.17761	998.31439	-376.38013	-1363.6394	995.61707	-387.50052	-1612.75879	655.24133	-457.16217	-1584.20605	492.02127	-448.79852	-1564.41467	241.88287	-383.63596	-1509.31982	74.80068	-361.06784	-1462.5155	64.95181	-321.02823	-1512.54858	40.21777	-503.76157	-1281.0072	652.09644	-567.96478	-1303.88782	535.10388	-613.4715	-1303.08057	297.06717	-505.16132	-1341.85754	125.39306	-431.47165	-1390.29846	108.01955	-391.41821	-1324.2113	53.07745	-564.51709	-1454.94629	1713.77234	-418.34579	NaN	NaN	NaN	NaN	NaN	NaN	NaN	NaN	NaN	NaN	NaN	NaN	NaN	NaN	NaN	NaN	NaN	NaN	NaN	NaN	NaN	NaN	NaN	NaN
167	1.66	-1510.63489	1674.8385	-531.23724	-1379.08118	1659.28699	-524.26288	-1519.37549	1623.58337	-396.57739	-1390.62805	1613.77673	-391.3483	-1464.26965	1458.1792	-390.97018	-1452.73706	1127.63306	-370.36539	-1462.03491	1386.48889	-503.68201	-1470.35632	1212.30847	-553.56372	-1387.32385	1283.67456	-325.73056	-1623.99683	1415.28906	-445.12384	-1696.39819	1215.78052	-479.81479	-1709.17041	1105.45752	-504.36371	-1724.78137	978.41479	-585.97552	-1674.99792	902.62836	-686.56567	-1714.08179	870.25812	-636.74103	-1713.27063	819.48096	-710.16315	-1300.9751	1413.98022	-455.12604	-1220.54321	1213.04138	-410.67856	-1213.354	1091.46753	-412.40457	-1196.63049	970.93805	-413.01724	-1223.13379	824.34106	-457.1152	-1187.08374	833.76678	-400.97543	-1182.90173	752.66693	-425.43515	-1566.33435	969.30371	-543.55048	-1346.53381	975.73596	-549.2666	-1531.17676	997.98053	-385.67072	-1363.6875	995.66534	-397.41983	-1612.5083	654.8313	-463.59512	-1584.16089	491.63315	-453.18701	-1564.31238	242.16798	-385.51208	-1509.10071	75.24104	-361.39554	-1462.13489	65.5881	-321.29196	-1512.57141	39.99303	-503.75986	-1281.79065	652.84155	-579.79047	-1305.35388	536.08716	-625.53864	-1304.13696	293.02658	-527.05249	-1342.68335	117.58079	-463.04462	-1391.32825	98.35444	-423.37363	-1325.25806	52.06876	-599.54938	-1454.77966	1713.50391	-429.07782	NaN	NaN	NaN	NaN	NaN	NaN	NaN	NaN	NaN	NaN	NaN	NaN	NaN	NaN	NaN	NaN	NaN	NaN	NaN	NaN	NaN	NaN	NaN	NaN
